<?xml version="1.0" encoding="UTF-8"?>
<!DOCTYPE svg PUBLIC "-//W3C//DTD SVG 1.1//EN" "http://www.w3.org/Graphics/SVG/1.1/DTD/svg11.dtd">
<!-- Creator: CorelDRAW 2021 (64-Bit) -->
<svg xmlns="http://www.w3.org/2000/svg" xml:space="preserve" width="2926px" height="2926px" version="1.1" style="shape-rendering:geometricPrecision; text-rendering:geometricPrecision; image-rendering:optimizeQuality; fill-rule:evenodd; clip-rule:evenodd"
viewBox="0 0 1665.63 1665.63"
 xmlns:xlink="http://www.w3.org/1999/xlink"
 xmlns:xodm="http://www.corel.com/coreldraw/odm/2003">
 <defs>
  <style type="text/css">
   <![CDATA[
    .fil0 {fill:#0E1419}
    .fil1 {fill:#4ADE80}
   ]]>
  </style>
 </defs>
 <g id="Capa_x0020_1">
  <metadata id="CorelCorpID_0Corel-Layer"/>
  <g id="_1256815858864">
   <rect class="fil0" width="1665.63" height="1665.63" rx="153.34" ry="200.43"/>
   <g>
    <path class="fil1" d="M767.92 304.39c-134.55,17.82 -235.11,56.93 -322.57,119.8 -237.58,170.78 -358.7,484.51 -247.23,777.28 16.63,43.71 50.19,121.87 77.57,147 33.67,30.91 129.26,2.47 73.05,-88.19 -30.26,-48.8 -50.96,-95 -64.05,-157.99 -29.29,-140.89 -16.11,-259.82 42.29,-374.56 49.03,-96.34 121.61,-177.9 209.33,-232.06 309.09,-190.84 732.69,-48.26 841.79,324.65 35,119.66 19.89,281.73 -27.17,383.25 -13.2,28.48 -22.93,44.4 -39.4,71.4 -18.6,30.49 -11.43,61.69 12.9,78.76 65.37,45.87 103.36,-53.12 120.78,-89.32 111.91,-232.71 69.15,-511.99 -64.8,-689.67 -66.28,-87.92 -131.85,-145.57 -239.08,-202.1 -94.24,-49.67 -243.25,-85.5 -373.41,-68.25z"/>
    <path class="fil1" d="M834.12 539.27c-317.84,0.67 -540.21,329.43 -386.92,633.7 15.11,30 35.89,65.32 79.59,51.86 34.31,-10.58 49.52,-50.97 29.66,-88.7 -37.5,-71.26 -59.05,-129.64 -39.8,-228.73 63.49,-326.89 543.32,-347.19 629.77,-14.95 52.6,202.13 -112.45,279.71 -12.84,328.46 106.8,52.27 200.47,-285.23 66.12,-484.79 -68.04,-101.08 -189.84,-197.22 -365.58,-196.85z"/>
    <path class="fil1" d="M809.45 836.36c-183.84,40.07 -117.94,292.81 52.2,259.43 62.57,-12.28 121.12,-76.84 103.22,-160.09 -12.21,-56.75 -80.72,-115.62 -155.42,-99.34z"/>
   </g>
  </g>
 </g>
</svg>
