<?xml version="1.0" encoding="UTF-8"?>
<!DOCTYPE svg PUBLIC "-//W3C//DTD SVG 1.1//EN" "http://www.w3.org/Graphics/SVG/1.1/DTD/svg11.dtd">
<!-- Creator: CorelDRAW 2021 (64-Bit) -->
<svg xmlns="http://www.w3.org/2000/svg" xml:space="preserve" width="2926px" height="2926px" version="1.1" style="shape-rendering:geometricPrecision; text-rendering:geometricPrecision; image-rendering:optimizeQuality; fill-rule:evenodd; clip-rule:evenodd"
viewBox="0 0 465 465"
 xmlns:xlink="http://www.w3.org/1999/xlink"
 xmlns:xodm="http://www.corel.com/coreldraw/odm/2003">
 <defs>
  <style type="text/css">
   <![CDATA[
    .fil0 {fill:#0E1419}
    .fil1 {fill:#4ADE80}
    .fil2 {fill:#4ADE80;fill-rule:nonzero}
   ]]>
  </style>
 </defs>
 <g id="Capa_x0020_1">
  <metadata id="CorelCorpID_0Corel-Layer"/>
  <g id="_1256817497632">
   <rect class="fil0" width="465" height="465" rx="42.81" ry="55.95"/>
   <g>
    <path class="fil1" d="M214.38 84.98c-37.56,4.97 -65.63,15.89 -90.05,33.44 -66.33,47.68 -100.14,135.27 -69.02,217 4.64,12.2 14.01,34.02 21.66,41.04 9.39,8.63 36.08,0.69 20.39,-24.62 -8.45,-13.62 -14.23,-26.52 -17.88,-44.11 -8.18,-39.33 -4.5,-72.53 11.8,-104.57 13.69,-26.89 33.96,-49.66 58.44,-64.78 86.3,-53.28 204.55,-13.47 235.01,90.63 9.77,33.41 5.56,78.66 -7.58,107 -3.69,7.95 -6.4,12.39 -11,19.93 -5.19,8.51 -3.19,17.22 3.6,21.99 18.25,12.81 28.86,-14.83 33.72,-24.94 31.24,-64.97 19.3,-142.93 -18.09,-192.54 -18.51,-24.54 -36.81,-40.64 -66.75,-56.42 -26.31,-13.86 -67.91,-23.87 -104.25,-19.05z"/>
    <path class="fil1" d="M232.87 150.55c-88.74,0.19 -150.82,91.97 -108.02,176.92 4.22,8.37 10.02,18.23 22.22,14.47 9.58,-2.95 13.82,-14.23 8.28,-24.76 -10.47,-19.9 -16.49,-36.19 -11.11,-63.86 17.72,-91.26 151.68,-96.92 175.81,-4.17 14.69,56.43 -31.39,78.09 -3.58,91.7 29.81,14.59 55.96,-79.63 18.46,-135.34 -19,-28.22 -53,-55.06 -102.06,-54.96z"/>
   </g>
   <path class="fil2" d="M201.81 308.21l0 -62.41 15.9 0 0 62.41 -15.9 0zm14.19 -24.2l0 -12.99 23.17 0 0 12.99 -23.17 0zm0 -25.22l0 -12.99 24.11 0 0 12.99 -24.11 0z"/>
   <path id="_1" class="fil2" d="M250.2 308.21l0 -62.41 15.56 0 0 62.41 -15.56 0zm-5.3 -51.13l0 -11.28 20.86 0 0 11.28 -20.86 0z"/>
  </g>
 </g>
</svg>
