<?xml version="1.0" encoding="UTF-8"?>
<!DOCTYPE svg PUBLIC "-//W3C//DTD SVG 1.1//EN" "http://www.w3.org/Graphics/SVG/1.1/DTD/svg11.dtd">
<!-- Creator: CorelDRAW 2021 (64-Bit) -->
<svg xmlns="http://www.w3.org/2000/svg" xml:space="preserve" width="2926px" height="2926px" version="1.1" style="shape-rendering:geometricPrecision; text-rendering:geometricPrecision; image-rendering:optimizeQuality; fill-rule:evenodd; clip-rule:evenodd"
viewBox="0 0 6573.51 6573.51"
 xmlns:xlink="http://www.w3.org/1999/xlink"
 xmlns:xodm="http://www.corel.com/coreldraw/odm/2003">
 <defs>
  <style type="text/css">
   <![CDATA[
    .fil0 {fill:#0E1419}
    .fil2 {fill:#4ADE80}
    .fil1 {fill:#4ADE80;fill-rule:nonzero}
   ]]>
  </style>
 </defs>
 <g id="Capa_x0020_1">
  <metadata id="CorelCorpID_0Corel-Layer"/>
  <g id="_1256807838144">
   <rect class="fil0" width="6573.51" height="6573.51" rx="605.18" ry="790.99"/>
   <path class="fil1" d="M1877.2 5512.56l0 -924.36 207.66 0 0 924.36 -207.66 0zm182.33 -372.27l0 -172.21 357.08 0 0 172.21 -357.08 0zm0 -379.88l0 -172.21 372.28 0 0 172.21 -372.28 0z"/>
   <path id="_1" class="fil1" d="M2591.35 5512.56l0 -924.36 202.6 0 1.27 924.36 -203.87 0zm-82.3 -774.94l0 -149.42 284.9 0 1.27 149.42 -286.17 0z"/>
   <path id="_2" class="fil1" d="M3400.48 5512.56l0 -205.13 -34.19 0 0 -222.86c0,-35.45 -8.44,-62.04 -25.32,-79.77 -16.89,-17.73 -43.9,-26.59 -81.04,-26.59 -18.57,0 -43.05,0.42 -73.44,1.26 -30.39,0.85 -61.63,2.11 -93.7,3.8 -32.08,1.69 -61.21,3.38 -87.37,5.07l0 -170.95c19.41,-1.68 42.2,-3.37 68.37,-5.06 26.17,-1.69 53.18,-2.95 81.04,-3.8 27.86,-0.84 54.03,-1.26 78.51,-1.26 70.91,0 130.63,10.12 179.17,30.39 48.54,20.25 85.47,50.85 110.8,91.8 25.32,40.94 37.98,93.49 37.98,157.64l0 425.46 -160.81 0zm-221.59 17.73c-49.81,0 -93.49,-8.87 -131.06,-26.59 -37.56,-17.73 -66.9,-43.27 -88,-76.61 -21.1,-33.35 -31.66,-73.23 -31.66,-119.66 0,-50.65 13.09,-92.23 39.26,-124.73 26.17,-32.49 62.89,-56.55 110.16,-72.17 47.27,-15.62 101.72,-23.43 163.35,-23.43l148.15 0 0 112.7 -149.42 0c-35.46,0 -62.68,8.65 -81.67,25.96 -19,17.3 -28.49,40.73 -28.49,70.27 0,27.86 9.49,50.44 28.49,67.75 18.99,17.3 46.21,25.95 81.67,25.95 22.79,0 43.26,-4 61.41,-12.02 18.15,-8.02 33.13,-21.74 44.95,-41.16 11.82,-19.41 18.57,-46.43 20.26,-81.04l48.12 50.65c-4.22,48.12 -15.83,88.64 -34.82,121.56 -18.99,32.93 -45.16,58.25 -78.51,75.98 -33.34,17.72 -74.07,26.59 -122.19,26.59z"/>
   <path id="_3" class="fil1" d="M3733.5 5512.56l0 -693.9 160.81 0 0 297.57 -3.79 0c0,-97.92 20.89,-173.48 62.67,-226.66 41.79,-53.18 102.36,-79.77 181.71,-79.77l26.59 0 0 174.74 -50.65 0c-55.71,0 -98.76,14.98 -129.15,44.95 -30.39,29.97 -45.59,73.23 -45.59,129.79l0 353.28 -202.6 0z"/>
   <path id="_4" class="fil1" d="M4580.62 5536.62c-59.09,0 -111.22,-10.13 -156.38,-30.39 -45.17,-20.26 -82.73,-47.48 -112.7,-81.67 -29.96,-34.19 -52.76,-72.6 -68.38,-115.23 -15.61,-42.63 -23.42,-86.32 -23.42,-131.06l0 -25.32c0,-46.43 7.81,-90.96 23.42,-133.59 15.62,-42.63 38.2,-80.83 67.75,-114.59 29.55,-33.77 66.48,-60.57 110.79,-80.41 44.32,-19.84 94.76,-29.76 151.32,-29.76 74.29,0 136.96,16.68 188.04,50.02 51.07,33.34 90.11,76.82 117.12,130.42 27.02,53.61 40.52,112.06 40.52,175.37l0 68.38 -614.12 0 0 -115.22 491.3 0 -65.85 53.18c0,-41.37 -5.9,-76.82 -17.72,-106.37 -11.82,-29.54 -29.34,-52.12 -52.55,-67.74 -23.22,-15.62 -52.13,-23.43 -86.74,-23.43 -35.46,0 -65.42,8.02 -89.9,24.06 -24.48,16.04 -43.05,39.47 -55.72,70.28 -12.66,30.81 -18.99,68.59 -18.99,113.33 0,41.36 5.91,77.45 17.73,108.26 11.81,30.81 30.38,54.66 55.71,71.54 25.33,16.89 58.25,25.33 98.77,25.33 37.14,0 67.53,-7.18 91.17,-21.53 23.63,-14.35 39.67,-32.08 48.11,-53.18l186.14 0c-10.13,46.43 -29.97,87.79 -59.51,124.09 -29.55,36.3 -66.69,64.58 -111.43,84.84 -44.74,20.26 -96.24,30.39 -154.48,30.39z"/>
   <g>
    <path class="fil2" d="M3059.24 1052.28c-471.71,62.5 -824.27,199.61 -1130.87,420 -832.95,598.77 -1257.59,1698.65 -866.79,2725.08 58.33,153.23 175.96,427.24 271.96,515.37 118.03,108.36 453.18,8.65 256.1,-309.2 -106.09,-171.09 -178.64,-333.04 -224.55,-553.89 -102.7,-493.94 -56.48,-910.9 148.26,-1313.17 171.9,-337.77 426.37,-623.7 733.9,-813.57 1083.63,-669.05 2568.73,-169.2 2951.2,1138.18 122.74,419.52 69.75,987.73 -95.24,1343.65 -46.28,99.83 -80.39,155.64 -138.12,250.29 -65.22,106.92 -40.09,216.29 45.2,276.13 229.19,160.83 362.39,-186.22 423.44,-313.15 392.37,-815.85 242.45,-1794.97 -227.17,-2417.9 -232.36,-308.21 -462.24,-510.35 -838.18,-708.51 -330.39,-174.15 -852.82,-299.77 -1309.14,-239.31z"/>
    <path class="fil2" d="M3291.35 1875.75c-1114.34,2.35 -1893.91,1154.96 -1356.52,2221.69 52.99,105.18 125.84,229.01 279.05,181.8 120.29,-37.07 173.61,-178.69 103.99,-310.97 -131.49,-249.84 -207.04,-454.51 -139.56,-801.91 222.61,-1146.04 1904.83,-1217.18 2207.93,-52.41 184.4,708.65 -394.25,980.65 -45.05,1151.55 374.43,183.25 702.82,-999.99 231.84,-1699.62 -238.55,-354.36 -665.58,-691.43 -1281.68,-690.13z"/>
    <path class="fil2" d="M3204.83 2917.33c-644.49,140.46 -413.48,1026.53 183.03,909.52 219.35,-43.04 424.64,-269.38 361.86,-561.27 -42.79,-198.95 -282.98,-405.33 -544.89,-348.25z"/>
   </g>
  </g>
 </g>
</svg>
